<svg data-v-0dd9719b="" version="1.0" xmlns="http://www.w3.org/2000/svg" xmlns:xlink="http://www.w3.org/1999/xlink" width="100%" height="100%" viewBox="0 0 340.000000 250.000000" preserveAspectRatio="xMidYMid meet" color-interpolation-filters="sRGB" style="margin: auto;"> <rect data-v-0dd9719b="" x="0" y="0" width="100%" height="100%" fill="#fff" fill-opacity="1" class="background"></rect> <rect data-v-0dd9719b="" x="0" y="0" width="100%" height="100%" fill="url(#watermark)" fill-opacity="1" class="watermarklayer"></rect> <g data-v-0dd9719b="" fill="#333" class="icon-text-wrapper icon-svg-group iconsvg" transform="translate(49.43027496459024,98.17875099182129)"><g class="iconsvg-imagesvg" transform="translate(0,5.045036315917969)"><g><rect fill="#333" fill-opacity="0" stroke-width="2" x="0" y="0" width="60" height="43.552426233078066" class="image-rect"></rect> <svg x="0" y="0" width="60" height="43.552426233078066" filtersec="colorsb3806878805" class="image-svg-svg primary" style="overflow: visible;"><svg xmlns="http://www.w3.org/2000/svg" viewBox="0.050200462341308594 -0.01689004898071289 184.5216827392578 133.93942260742188"><path d="M88.59 54.21c18.92 0 37.85-.31 56.75.18 7.23.18 11.57-1.51 12.61-9.17.32-2.33.77-5.59 3.7-6 2.39-.36 3.77 2.28 5.11 4 5.39 7 10.59 14.12 16 21.1 2.71 3.51 2.47 6.08-1.33 8.75-10.72 7.53-21.26 15.33-31.9 23-1.56 1.12-3.27 3.12-5.31 1.55s-.58-3.69-.34-5.65c.34-2.78 3.94-6.7-1.7-7.83-4.42-.89-8.51-.28-10 5.34-3 11.45-6.63 22.74-9.52 34.22-1.79 7.15-5.19 10.75-13.14 10.16-8.53-.63-17.14-.08-25.72-.17s-9.19-1-6.72-9.42q4.71-15.94 9.64-31.82c2.25-7.24 1.51-8.64-6.12-8.53-27.08.37-21.17-4.07-28.55 21-2.2 7.49-4.62 14.92-6.77 22.42-1.19 4.17-3.43 6.42-8 6.35-10.59-.15-21.19-.09-31.78 0-4.86 0-6.29-2.32-5-6.77C7.06 104.43 13.7 82 20.23 59.46c1.32-4.54 4.26-5.38 8.58-5.33 19.92.18 39.85.08 59.78.08z" fill="#fabe00"></path><path d="M123.16 45.89h-15.85c-4.6.05-6.42-1.48-4.9-6.44 3.25-10.57 6.18-21.23 9-31.92 1.33-5.07 3.85-7.7 9.47-7.54 10.06.3 20.12.21 30.19.01 5.38-.09 7.46 1.79 5.74 7.26q-5.33 16.88-10.33 33.87c-1 3.54-3.33 4.75-6.71 4.73-5.54.01-11.08.03-16.61.03zM47.83 45.89h-16.6c-4.05 0-6.16-1.26-4.74-6Q31.5 23.31 36 6.56C37.2 1.92 39.86 0 44.61 0c10.31.15 20.63.12 30.94 0 4.84 0 7.19 1.57 5.56 6.79q-5.35 17.27-10.52 34.6c-1.08 3.63-3.63 4.46-6.91 4.44-5.28.05-10.57.07-15.85.06z" fill="#ea5504"></path></svg></svg> <!----></g></g> <g transform="translate(67,0)"><g data-gra="path-name" fill-rule="" class="tp-name iconsvg-namesvg" transform="translate(0,0)"><g transform="scale(1)"><g><path d="M30.55-23.09L29.29-12.01 13.63-12.01 15.12-24.12Q15.25-25.11 15.66-25.79L15.66-25.79 12.73-25.79Q14.76-28.57 18.4-34.06L18.4-34.06 18.99-34.96 23.04-34.96 21.78-32.85 26.77-32.85Q27.95-32.85 28.53-32.04L28.53-32.04Q28.8-31.63 28.8-31.09L28.8-31.09Q28.8-30.55 28.48-29.97L28.48-29.97 27.09-27.13 27.36-27.13Q28.89-27.13 29.74-26.28 30.6-25.43 30.6-23.85L30.6-23.85Q30.6-23.36 30.55-23.09L30.55-23.09ZM10.53-34.56L15.03-34.56Q11.21-28.08 7.6-23.27L7.6-23.27 2.83-23.27Q8.28-30.6 10.53-34.56L10.53-34.56ZM32.71-32.89L42.52-32.89 42.12-29.07 32.27-29.07 32.71-32.89ZM19.75-29.74L17.86-27.09Q17.95-27.13 18.36-27.13L18.36-27.13 23.27-27.13 24.61-29.74 19.75-29.74ZM10.44-24.84L14.45-24.84Q13.37-22.81 11.92-20.43L11.92-20.43 9.27 2.97 5.4 2.97 7.25-13.23 6.43-12.01 2.02-12.01Q5.13-16.52 7.02-19.35 8.91-22.18 10.44-24.84L10.44-24.84ZM20.88-20.88L21.24-23.8 18.31-23.8 17.95-20.88 20.88-20.88ZM23.89-20.88L26.86-20.88 27.22-23.8 24.21-23.8 23.89-20.88ZM42.61-22.59L42.16-18.72 39.55-18.72 37.8-0.09Q37.66 1.57 36.85 2.43 36.05 3.28 34.7 3.28L34.7 3.28Q34.2 3.28 33.66 3.15L33.66 3.15Q31.5 2.75 29.47 1.98L29.47 1.98 29.92-1.84Q29.74-1.89 31.54-1.4L31.54-1.4Q32.76-1.08 33.34-0.94L33.34-0.94Q33.44-0.9 33.57-0.9L33.57-0.9Q33.98-0.9 34.06-1.53L34.06-1.53 35.64-18.72 31-18.72 31.45-22.59 42.61-22.59ZM20.25-15.16L20.56-18.04 17.59-18.04 17.28-15.16 20.25-15.16ZM26.55-18.04L23.63-18.04 23.31-15.16 26.23-15.16 26.55-18.04ZM28.39-0.18L25.65 2.38Q22.81-0.72 20.38-3.01L20.38-3.01Q18 0.58 13.46 3.15L13.46 3.15 10.93 0.77Q13.46-0.72 15.23-2.27 17.01-3.82 18.09-5.94L18.09-5.94 12.42-5.94 12.82-9.22 19.26-9.22 19.44-10.08 19.57-10.98 23.13-10.98 22.86-9.22 29.97-9.22 29.56-5.94 21.91-5.94 21.91-5.89Q25.65-2.79 28.39-0.18L28.39-0.18ZM65.75-29.38L61.7-20.34Q64.44-15.43 64.44-10.66L64.44-10.66Q64.44-9.63 64.31-8.59L64.31-8.59Q64.03-6.39 63.07-5.38 62.1-4.37 60.3-4.37L60.3-4.37Q59.27-4.37 57.24-4.77L57.24-4.77Q56.34-4.95 54.99-5.4L54.99-5.4 55.35-9.67Q56.2-9.36 57.42-9.04L57.42-9.04Q58.86-8.69 59.27-8.64L59.27-8.64 59.63-8.59Q60.03-8.59 60.21-8.87 60.39-9.13 60.48-9.95L60.48-9.95Q60.62-12.38 59.98-14.78 59.35-17.19 57.64-20.2L57.64-20.2 61.42-29.61 56.34-29.61 52.52 3.06 48.38 3.06 52.24-29.74Q52.52-32.04 53.23-32.92 53.95-33.8 55.66-33.84L55.66-33.84 63.22-33.84Q64.62-33.84 65.41-33.14 66.19-32.45 66.19-31.27L66.19-31.27Q66.19-30.33 65.75-29.38L65.75-29.38ZM86.85-28.84L82.98 2.48 64.71 2.48 68.85-29.74Q69.34-33.52 72.9-33.52L72.9-33.52 82.98-33.52Q86.94-33.52 86.94-29.88L86.94-29.88Q86.94-29.56 86.85-28.84L86.85-28.84ZM81.45-18.45L82.8-29.29 72.94-29.29 71.59-18.45 81.45-18.45ZM71.1-14.49L69.48-1.57 79.38-1.57 80.95-14.49 71.1-14.49ZM100.44-0.81L102.42-16.88 100.39-16.88Q99.58-10.53 98.35-5.6 97.11-0.67 95.17 3.19L95.17 3.19 91.44 2.21Q93.42-1.67 94.72-6.43L94.72-6.43Q95.89-10.62 96.75-16.88L96.75-16.88 93.42-16.88 93.83-20.7 99.45-20.7 101.2-35.37 104.94-35.37 103.19-20.7 109.03-20.7 108.63-16.88 106.06-16.88 104.4-2.97 104.4-2.75Q104.4-2.25 104.98-2.43L104.98-2.43Q106.65-2.97 108.13-3.87L108.13-3.87 107.78 0.09Q105.93 1.03 103.55 1.71L103.55 1.71Q102.83 1.89 102.56 1.89L102.56 1.89Q101.52 1.89 100.94 1.17 100.35 0.45 100.44-0.81L100.44-0.81ZM120.38-31L119.16-20.79 115.61-20.79 115.83-22.68Q114.8-22.18 113.04-21.6L113.04-21.6Q111.91-21.15 109.53-20.52L109.53-20.52 109.94-23.76Q113.36-24.66 116.23-25.88L116.23-25.88 116.86-30.96 110.25-30.96 110.61-34.2 118.03-34.2Q119.3-34.2 119.92-33.3 120.56-32.4 120.38-31L120.38-31ZM132.03-31L130.68-19.57 127.03-19.57 127.44-22.81 125.82-22.18Q124.52-21.64 122.67-21.15L122.67-21.15 120.56-20.56 120.96-23.71Q124.74-24.66 127.8-25.88L127.8-25.88 128.43-30.96 121.5-30.96 121.86-34.2 129.69-34.2Q130.81-34.2 131.44-33.5 132.07-32.8 132.07-31.68L132.07-31.68Q132.07-31.23 132.03-31L132.03-31ZM95.94-22.95L94.64-32.53 97.83-32.53 99.09-22.95 95.94-22.95ZM109.71-32.4L107.55-22.77 104.27-22.77 106.56-32.4 109.71-32.4ZM110.34-27.45L110.75-30.15 115.38-28.53 114.93-25.7 110.34-27.45ZM121.55-27.45L121.95-30.15 126.59-28.53 126.18-25.7 121.55-27.45ZM130.37-11.74L130-8.69 123.3-8.69 123.03-6.21 129.87-6.21 129.51-3.15 122.67-3.15 122.35-0.63 130.86-0.63 130.45 2.61 109.08 2.61 110.47-9.13 106.52-9.13Q108.86-12.46 110.3-15.03L110.3-15.03Q111.38-16.96 112.81-20.07L112.81-20.07 116.78-20.07 115.56-17.5 120.42-17.5 119.79-19.84 123.44-19.84 124.2-17.5 131.35-17.5 131-14.31 123.97-14.31 123.66-11.74 130.37-11.74ZM120.06-11.74L120.38-14.31 114.84-14.31 114.53-11.74 120.06-11.74ZM119.38-6.21L119.66-8.69 114.16-8.69 113.89-6.21 119.38-6.21ZM118.71-0.63L119.03-3.15 113.53-3.15 113.22-0.63 118.71-0.63ZM167.18-35.41L171.05-35.41 169.78-32.35 172.71-32.35Q174.47-32.35 175.39-31.52 176.31-30.69 176.13-29.02L176.13-29.02 175.68-24.39Q175.59-23.8 175.14-21.11L175.14-21.11 174.91-19.66Q174.51-18 173.59-17.41 172.66-16.83 171-16.92L171-16.92Q168.7-17.05 167.09-17.28L167.09-17.28 167.58-20.56Q169.47-20.29 170.55-20.29L170.55-20.29Q171.05-20.29 171.2-20.41 171.36-20.52 171.54-21.11L171.54-21.11Q171.85-22.32 172.13-24.57L172.13-24.57Q172.39-26.82 172.49-28.75L172.49-28.75 165.6-28.75 164.03-15.25 172.8-15.25Q174.69-15.25 175.41-14.4 176.13-13.54 176.13-12.11L176.13-12.11Q176.13-11.34 175.97-10.35 175.81-9.36 175.77-8.96L175.77-8.96Q175.28-4.59 175-2.75L175-2.75Q174.96-2.38 174.74-1.01 174.51 0.36 174.1 1.24 173.7 2.11 173.12 2.43L173.12 2.43Q172.31 2.92 170.69 2.92L170.69 2.92Q169.34 2.92 167.18 2.61L167.18 2.61Q164.56 2.25 163.53 1.93L163.53 1.93 164.03-1.71Q167.49-0.9 170.06-0.81L170.06-0.81 170.19-0.81Q170.5-0.81 170.64-0.97 170.78-1.13 170.91-1.57L170.91-1.57Q171.31-3.06 171.72-6.3L171.72-6.3Q171.99-8.55 172.26-11.74L172.26-11.74 163.44-11.74Q161.32-11.74 160.78-12.6L160.78-12.6Q160.51-13 160.51-13.72L160.51-13.72Q160.51-14.4 160.65-15.39L160.65-15.39 162.18-28.98Q162.31-30.06 162.54-30.71 162.76-31.36 163.17-31.72L163.17-31.72Q163.57-32.09 164.2-32.22 164.84-32.35 165.87-32.35L165.87-32.35 167.18-35.41ZM150.12-29.7L147.1 0.09Q146.84 2.75 144.85 2.75L144.85 2.75Q143.5 2.75 141.48 2.16L141.48 2.16 141.93-1.21Q143.01-0.85 143.59-0.81L143.59-0.81 143.69-0.81Q144.09-0.81 144.13-1.35L144.13-1.35 145.03-10.84 142.6-10.84 142.51-9.9Q141.97-5.44 141.37-2.38 140.76 0.67 139.81 3.15L139.81 3.15 136.71 2.34Q138.42-2.56 139.23-9.81L139.23-9.81 141.03-30.73Q141.3-32.71 142.04-33.48 142.78-34.24 144.54-34.24L144.54-34.24 147.06-34.24Q148.77-34.24 149.49-33.55 150.21-32.85 150.21-31.14L150.21-31.14Q150.21-30.78 150.12-29.7L150.12-29.7ZM160.74-29.7L157.77 0.22Q157.5 2.88 155.47 2.88L155.47 2.88Q154.13 2.88 152.1 2.29L152.1 2.29 152.55-1.08Q153.63-0.72 154.17-0.67L154.17-0.67 154.26-0.67Q154.71-0.67 154.75-1.21L154.75-1.21 155.66-10.84 153.13-10.84 153.04-9.9Q152.5-5.49 151.83-2.36 151.16 0.77 150.16 3.15L150.16 3.15 147.06 2.34Q148.81-2.07 149.76-9.81L149.76-9.81 151.97-30.73Q152.19-32.76 152.89-33.5 153.59-34.24 155.29-34.24L155.29-34.24 157.63-34.24Q159.34-34.24 160.09-33.55 160.83-32.85 160.83-31.18L160.83-31.18Q160.83-30.78 160.74-29.7L160.74-29.7ZM146.34-24.03L146.97-30.55 144.36-30.55 143.78-24.03 146.34-24.03ZM156.96-24.03L157.59-30.55 155.07-30.55 154.44-24.03 156.96-24.03ZM170.55-21.82L167.53-21.82 166.28-27.31 169.2-27.31 170.55-21.82ZM145.4-14.4L145.98-20.47 143.46-20.47 142.92-14.4 145.4-14.4ZM156.01-14.4L156.6-20.47 154.08-20.47 153.5-14.4 156.01-14.4ZM170.06-5.04L159.53-5.04 159.88-8.59 170.46-8.59 170.06-5.04Z" transform="translate(-2.0199999809265137, 35.40999984741211)"></path></g> <!----> <!----> <!----> <!----> <!----> <!----> <!----></g></g> <g data-gra="path-slogan" fill-rule="" class="tp-slogan iconsvg-slogansvg" fill="#333" transform="translate(22.499725341796875,44.689998626708984)"><!----> <!----> <g transform="scale(1, 1)"><g transform="scale(1)"><path d="M2.06-5.06L6.56-5.06L6.56-8.58L7.73-8.58L7.73 0L6.56 0L6.56-3.98L2.06-3.98L2.06 0L0.89 0L0.89-8.58L2.06-8.58L2.06-5.06ZM10.83-1.03L15.98-1.03L15.98 0L9.66 0L9.66-8.58L15.89-8.58L15.89-7.59L10.83-7.59L10.83-4.92L15.52-4.92L15.52-3.89L10.83-3.89L10.83-1.03ZM18.89-8.58L23.20-1.64L23.20-8.58L24.33-8.58L24.33 0L23.02 0L18.66-6.94L18.61-6.94L18.61 0L17.48 0L17.48-8.58L18.89-8.58ZM32.53-3.61L29.91-3.61L29.91-4.59L33.66-4.59L33.66 0L32.91 0L32.63-1.08Q31.64 0.09 29.81 0.14L29.81 0.14Q28.08 0.14 27.14-0.75L27.14-0.75Q25.73-2.06 25.78-4.36L25.78-4.36Q26.11-8.63 29.86-8.81L29.86-8.81Q33.05-8.63 33.52-6L33.52-6L32.39-6Q31.92-7.78 29.81-7.83L29.81-7.83Q27.14-7.64 27-4.31L27-4.31Q27-0.75 29.86-0.75L29.86-0.75Q30.89-0.75 31.64-1.31L31.64-1.31Q32.58-2.06 32.53-3.61L32.53-3.61ZM42.38-8.58L39.14-3.47L39.14 0L37.97 0L37.97-3.47L34.73-8.58L36.09-8.58L38.53-4.45L41.02-8.58L42.38-8.58ZM49.08 0L48.23-2.48L44.77-2.48L43.88 0L42.70 0L45.94-8.58L47.25-8.58L50.34 0L49.08 0ZM46.50-7.31L45.14-3.52L47.81-3.52L46.55-7.31L46.50-7.31ZM52.78-8.58L57.09-1.64L57.09-8.58L58.22-8.58L58.22 0L56.91 0L52.55-6.94L52.50-6.94L52.50 0L51.38 0L51.38-8.58L52.78-8.58ZM66.42-3.61L63.80-3.61L63.80-4.59L67.55-4.59L67.55 0L66.80 0L66.52-1.08Q65.53 0.09 63.70 0.14L63.70 0.14Q61.97 0.14 61.03-0.75L61.03-0.75Q59.63-2.06 59.67-4.36L59.67-4.36Q60-8.63 63.75-8.81L63.75-8.81Q66.94-8.63 67.41-6L67.41-6L66.28-6Q65.81-7.78 63.70-7.83L63.70-7.83Q61.03-7.64 60.89-4.31L60.89-4.31Q60.89-0.75 63.75-0.75L63.75-0.75Q64.78-0.75 65.53-1.31L65.53-1.31Q66.47-2.06 66.42-3.61L66.42-3.61ZM79.59-8.58L76.36-3.47L76.36 0L75.19 0L75.19-3.47L71.95-8.58L73.31-8.58L75.75-4.45L78.23-8.58L79.59-8.58ZM86.30 0L85.45-2.48L81.98-2.48L81.09 0L79.92 0L83.16-8.58L84.47-8.58L87.56 0L86.30 0ZM83.72-7.31L82.36-3.52L85.03-3.52L83.77-7.31L83.72-7.31ZM95.39-4.27L95.39-4.27Q95.20-7.64 92.39-7.83L92.39-7.83Q89.53-7.69 89.39-4.27L89.39-4.27Q89.53-0.94 92.39-0.80L92.39-0.80Q95.20-0.98 95.39-4.27ZM96.56-4.27L96.56-4.27Q96.28 0 92.39 0.14L92.39 0.14Q88.45 0 88.17-4.27L88.17-4.27Q88.41-8.72 92.39-8.81L92.39-8.81Q96.28-8.67 96.56-4.27ZM101.58-7.64L99.23-7.64L99.23-4.64L101.53-4.64Q103.31-4.64 103.31-6.19L103.31-6.19Q103.31-7.59 101.58-7.64L101.58-7.64ZM101.95-3.61L99.23-3.61L99.23 0L98.06 0L98.06-8.58L101.95-8.58Q104.39-8.48 104.48-6.19L104.48-6.19Q104.34-3.70 101.95-3.61L101.95-3.61ZM107.20-1.03L112.36-1.03L112.36 0L106.03 0L106.03-8.58L112.27-8.58L112.27-7.59L107.20-7.59L107.20-4.92L111.89-4.92L111.89-3.89L107.20-3.89L107.20-1.03ZM115.27-8.58L119.58-1.64L119.58-8.58L120.70-8.58L120.70 0L119.39 0L115.03-6.94L114.98-6.94L114.98 0L113.86 0L113.86-8.58L115.27-8.58ZM128.91-3.61L126.28-3.61L126.28-4.59L130.03-4.59L130.03 0L129.28 0L129-1.08Q128.02 0.09 126.19 0.14L126.19 0.14Q124.45 0.14 123.52-0.75L123.52-0.75Q122.11-2.06 122.16-4.36L122.16-4.36Q122.48-8.63 126.23-8.81L126.23-8.81Q129.42-8.63 129.89-6L129.89-6L128.77-6Q128.30-7.78 126.19-7.83L126.19-7.83Q123.52-7.64 123.38-4.31L123.38-4.31Q123.38-0.75 126.23-0.75L126.23-0.75Q127.27-0.75 128.02-1.31L128.02-1.31Q128.95-2.06 128.91-3.61L128.91-3.61Z" transform="translate(-0.890625, 8.8125)"></path></g></g></g></g></g><defs v-gra="od"></defs></svg>